<?xml version="1.0" standalone="no"?>
<!DOCTYPE svg PUBLIC "-//W3C//DTD SVG 1.1//EN" "http://www.w3.org/Graphics/SVG/1.1/DTD/svg11.dtd">
<svg xmlns="http://www.w3.org/2000/svg">
<metadata>Generated by Fontastic.me</metadata>
<defs>
<font id="mottiva" horiz-adv-x="512">
<font-face font-family="mottiva" units-per-em="512" ascent="480" descent="-32"/>
<missing-glyph horiz-adv-x="512" />

<glyph glyph-name="right" unicode="&#103;" d="M335 238c0-3-1-5-3-7l-133-133c-2-2-5-3-7-3-2 0-5 1-7 3l-14 14c-2 2-3 4-3 7 0 2 1 5 3 6l112 113-112 112c-2 2-3 4-3 7 0 2 1 4 3 6l14 14c2 2 5 3 7 3 2 0 5-1 7-3l133-133c2-2 3-4 3-6z"/>
<glyph glyph-name="bell" unicode="&#105;" d="M261 27c0 3-2 5-5 5-11 0-21 4-29 12-8 8-12 18-12 29 0 3-2 5-5 5-3 0-4-2-4-5 0-14 5-26 14-35 10-10 22-15 36-15 3 0 5 1 5 4z m233 83c0-10-4-19-11-26-7-7-16-11-26-11l-128 0c0-20-7-37-21-52-15-14-32-21-52-21-20 0-37 7-52 21-14 15-21 32-21 52l-128 0c-10 0-19 4-26 11-7 7-11 16-11 26 10 8 18 16 26 25 8 9 16 20 25 34 8 14 15 29 21 45 6 16 10 36 14 59 4 23 6 48 6 74 0 29 11 56 33 81 22 25 52 40 88 45-2 4-2 8-2 12 0 7 2 14 8 19 5 5 11 8 19 8 8 0 14-3 19-8 6-5 8-12 8-19 0-4 0-8-2-12 36-5 66-20 88-45 22-25 33-52 33-81 0-26 2-51 6-74 4-23 8-43 14-59 6-16 13-31 21-45 9-14 17-25 25-34 8-9 16-17 26-25z"/>
<glyph glyph-name="check" unicode="&#110;" d="M232 82c-5-5-13-10-19-13-8-3-15-5-23-5-8 0-16 2-22 5-6 3-14 8-19 13l-130 131c-13 11-19 25-19 41 0 16 6 31 18 42 11 11 25 18 41 18 16 0 31-7 42-18l77-78c3-4 6-5 11-5 3 0 8 1 11 5l210 211c4 6 12 9 19 13 8 4 16 6 22 6 8 0 16-2 23-5 8-3 14-8 19-13 5-6 9-12 13-19 3-8 4-16 4-24 0-8-1-16-4-22-4-8-8-15-13-19z"/>
<glyph glyph-name="heart" unicode="&#112;" d="M365 481c-44 0-86-20-112-51-26 31-68 51-112 51-76 0-136-59-136-135 0-93 83-168 212-282l36-33 36 33c127 114 212 189 212 282 0 76-59 135-136 135z"/>
<glyph glyph-name="chat" unicode="&#106;" d="M488 472c-16 16-37 24-58 24l-348 0c-21 0-42-8-58-24-16-16-24-37-24-59l0-221c0-22 8-43 24-59 16-16 37-24 58-24l27 0 0-74c0-3 1-6 3-9 2-4 5-5 8-7 3-3 6-3 10-3 3 0 6 2 9 5l104 88 186 0c22 0 43 8 57 24 16 16 24 37 24 59l0 221c2 22-6 43-22 59z m-315-195c-7-7-16-11-26-11-8 0-14 1-21 6-6 5-11 10-12 16-4 6-4 14-2 21 2 6 5 14 10 19 4 5 11 8 19 10 6 1 14 0 21-2 6-3 12-8 16-13 4-6 6-13 6-21-2-9-5-19-11-25z m109 0c-7-7-16-11-26-11-8 0-14 1-21 6-6 5-11 10-13 16-3 6-3 14-1 21 1 6 5 14 9 19 5 5 12 8 20 10 6 1 14 0 20-2 7-3 13-8 16-13 5-6 7-13 7-21 0-9-5-19-11-25z m110 0c-6-7-16-11-26-11-8 0-14 1-20 6-7 5-12 10-13 16-3 6-3 14-2 21 2 6 5 14 10 19 5 5 11 8 19 10 8 1 14 0 21-2 6-3 13-8 16-13 5-6 6-13 6-21-1-9-5-19-11-25z"/>
<glyph glyph-name="update" unicode="&#108;" d="M5 261c3 127 105 229 229 228 123-2 214-92 214-219l48 0c4-3 5-8 5-12 0-5-1-10-5-13l-57-62c-1-1-3-3-6-3-2-2-5-2-6-2-2 0-5 0-8 0-2 2-5 2-6 4l-55 62c-3 3-4 7-4 12 0 5 1 9 4 12l45 0c0 104-71 174-170 176-101 4-185-79-186-185-4-104 76-189 175-194l0-42c-123 5-219 110-217 238z"/>
<glyph glyph-name="calendar" unicode="&#109;" d="M451 8l-397 0c-28 0-49 21-49 49l0 365c0 28 18 50 42 50l24 0 0-33-24 0c-4 0-8-6-8-17l0-365c0-9 6-17 17-17l397 0c9 0 17 7 17 17l0 365c0 9-5 17-8 17l-24 0 0 33 24 0c24 0 42-22 42-50l0-365c-3-28-25-49-53-49z m-330 397c-11 0-17 6-17 17l0 65c0 11 6 17 17 17 11 0 17-6 17-17l0-67c0-9-8-15-17-15z m265 0c-9 0-17 6-17 17l0 65c0 9 6 17 17 17 11 0 17-6 17-17l0-67c-1-9-7-15-17-15z m-215 67l166 0 0-33-166 0z m-132-100l430 0 0-32-430 0z m363-66l32 0 0-33-32 0z m-65 0l32 0 0-33-32 0z m-67 0l33 0 0-33-33 0z m-67 0l33 0 0-33-33 0z m-65 0l33 0 0-33-33 0z m264-67l32 0 0-33-32 0z m-65 0l32 0 0-33-32 0z m-67 0l33 0 0-33-33 0z m-67 0l33 0 0-33-33 0z m-65 0l33 0 0-33-33 0z m-67 0l33 0 0-33-33 0z m331-65l32 0 0-33-32 0z m-65 0l32 0 0-33-32 0z m-67 0l33 0 0-33-33 0z m-67 0l33 0 0-33-33 0z m-65 0l33 0 0-33-33 0z m-67 0l33 0 0-33-33 0z m266-67l32 0 0-33-32 0z m-67 0l33 0 0-33-33 0z m-67 0l33 0 0-33-33 0z m-65 0l33 0 0-33-33 0z m-67 0l33 0 0-33-33 0z"/>
<glyph glyph-name="search" unicode="&#114;" d="M459 8l-141 141 0 22-8 9c-35-31-83-47-130-43-48 3-93 23-124 58-33 36-50 81-50 129 2 48 20 93 55 127 32 33 77 52 125 53 48 2 95-17 129-49 34-33 56-78 59-125 3-48-12-94-44-130l8-8 22 0 141-141z m-270 439c-25 0-49-8-71-22-20-14-36-34-47-57-9-24-12-50-7-75 4-25 17-48 35-65 19-17 41-29 65-34 25-5 50-3 75 8 23 9 43 26 57 46 14 22 22 45 22 72 0 34-14 66-37 90-23 23-58 37-92 37z"/>
<glyph glyph-name="down" unicode="&#115;" d="M451 408l-193-179-197 176-61-55 258-232 254 236z"/>
<glyph glyph-name="close" unicode="&#116;" d="M512 438l-74 74-182-182-182 182-74-74 182-182-182-182 74-74 182 182 182-182 74 74-182 182z"/>
<glyph glyph-name="history" unicode="&#117;" d="M248 391c-4 0-8-2-11-5-3-3-4-7-4-11l0-135 91-62c3-1 8-3 11-1 5 1 8 3 9 6 2 3 4 8 2 11-2 5-3 8-6 9l-78 53 0 119c0 5-1 8-4 11-2 3-5 5-10 5z m0 121c-45 0-88-12-125-34-39-23-70-56-92-95l0 79c0 5-2 8-5 11-3 3-6 5-10 5-5 0-8-2-11-5-3-3-5-6-5-11l0-136 137 0c4 0 7 1 10 4 3 4 5 7 5 11 0 5-2 8-5 11-3 3-6 5-10 5l-84 0c20 42 51 76 91 98 41 21 86 31 132 24 47-6 89-24 121-55 34-31 56-72 65-117 10-45 3-91-15-133-19-42-51-76-90-98-40-22-85-31-130-26-45 4-89 24-123 56-2 1-3 3-5 3-1 0-4 1-6 1-1 0-5 0-6-1-2-2-3-2-5-3-3-5-4-7-4-10 0-1-2-4-2-6 0-2 0-5 2-6 1-2 1-3 3-5 29-28 65-46 105-57 39-11 81-11 120-2 38 9 76 28 105 54 31 27 54 61 68 98 14 37 21 78 16 118-5 40-19 81-42 113-23 33-53 61-88 80-36 20-76 29-117 29z"/>
<glyph glyph-name="bell-1" unicode="&#118;" d="M256 0c-14 0-27 5-37 16-9 10-16 24-16 37l104 0c0-15-5-27-16-37-8-11-21-16-35-16z m208 78l-416 0 0 26 53 53 0 131c0 38 9 75 30 107 21 31 51 51 87 59l0 18c0 11 4 21 11 27 6 8 17 13 27 13 10 0 21-5 27-11 8-8 11-18 11-27l0-18c36-8 66-29 87-59 21-32 32-69 30-107l0-132 53-52z"/>
<glyph glyph-name="dots" unicode="&#119;" d="M104 251c0 10-3 21-8 28-6 10-14 16-23 20-8 4-19 5-28 2-9-3-19-6-25-14-6-8-12-15-14-26-1-8-1-19 3-28 3-10 11-17 19-24 8-4 17-7 26-7 13 0 27 4 36 15 9 11 14 22 14 34z m347-49c-9 0-20 3-27 7-8 7-14 14-19 24-3 9-5 18-3 29 1 10 6 19 14 27 6 7 15 12 25 14 9 1 20 1 28-4 9-3 17-10 21-18 6-8 8-19 8-28 0-14-5-26-14-36-6-11-19-15-33-15z m-198 0c-9 0-20 3-28 7-8 7-14 14-17 24-3 9-5 18-3 29 1 10 6 19 14 27 6 7 15 12 25 14 9 1 20 1 28-4 9-4 17-10 23-18 6-8 8-19 8-28 0-14-5-26-14-36-10-11-22-15-36-15z"/>
<glyph glyph-name="pause" unicode="&#120;" d="M72 512l98 0 0-512-98 0z m259 0l98 0 0-512-98 0z"/>
<glyph glyph-name="play" unicode="&#121;" d="M256 504c-137 0-248-111-248-248 0-137 111-248 248-248 137 0 248 111 248 248 0 137-111 248-248 248z m-50-360l0 224 149-112z"/>
<glyph glyph-name="up" unicode="&#122;" d="M438 110l-188 174-191-171-59 55 250 223 246-228z"/>
<glyph glyph-name="clip" unicode="&#65;" d="M86 16c-22 0-41 8-59 26-17 17-27 38-27 64 0 25 10 46 27 64l287 296c14 14 32 24 51 28 19 4 38 2 57-4 20-7 39-18 55-34 5-5 9-11 14-18 5-6 10-12 13-20 3-8 5-15 6-23 2-8 2-16 2-24 0-33-13-62-35-86l-218-224c-3-3-6-5-11-5-5 0-8 2-11 5-3 3-5 6-5 11 0 5 2 8 5 11l217 224c18 18 28 39 28 66 0 25-8 46-26 64-11 11-22 19-35 24-15 3-29 5-43 3-15-2-29-8-40-19l-287-296c-13-11-19-26-19-43 0-16 6-31 19-44 7-4 11-9 19-12 5-2 13-4 20-2 14 0 28 8 41 19l229 235c2 2 3 4 5 5 1 2 3 3 5 7 1 3 3 4 3 8 1 3 1 4 1 8 0 3 0 4-1 8-2 3-3 6-7 8-6 6-12 9-19 8-6 0-13-5-21-13l-171-175c-1-1-5-3-6-4-2-2-5-2-8 0-3 1-5 1-8 3-3 3-5 6-5 11 0 5 2 8 5 11l171 178c14 13 27 19 42 21 16 1 30-5 43-18 13-11 17-26 16-42-2-16-10-32-24-44l-227-237c-20-18-40-27-63-29 0 0-1 0-1 0-2 0-2 0-4 0z"/>
<glyph glyph-name="justify" unicode="&#66;" d="M0 147l320 0 0-43-320 0z m0 175l512 0 0-44-512 0z m0-88l512 0 0-44-512 0z m0 174l512 0 0-43-512 0z"/>
<glyph glyph-name="informe" unicode="&#67;" d="M54 344l100 0c12 0 26-4 35-14 10-9 14-21 14-34l0-96c0-8-3-17-9-23-6-6-14-9-23-9l0-112c0-8-3-17-10-23-6-7-15-10-23-10l-67 0c-9 0-17 3-23 10-6 6-9 14-9 23l0 112c-10 0-17 3-23 9-7 6-10 14-10 23l0 96c0 13 5 25 14 34 9 10 22 14 34 14z m-15-144l32 0 0-144 67 0 0 144 33 0 0 96c0 5-2 8-5 11-3 3-8 5-12 5l-100 0c-4 0-9-2-12-5-3-3-5-8-5-11l0-96z m132 225c0 13-5 25-11 36-8 9-19 18-30 23-12 5-26 6-38 3-13-1-25-8-35-17-9-9-15-20-18-32-2-13 0-27 4-38 5-12 14-21 25-29 11-6 24-11 36-11 17 0 34 6 46 19 13 12 21 29 21 46z m-33 0c0-6-1-12-6-17-3-6-9-11-16-12-6-3-12-3-18-3-6 1-13 4-17 9-5 4-8 11-10 17-1 6 0 12 2 19 3 4 8 10 12 13 7 4 13 5 19 5 9 0 17-3 23-9 6-6 11-14 11-22z m132-177l0 48c0 13 5 25 14 34 9 10 22 14 36 14l99 0c12 0 26-4 36-14 9-9 14-21 14-34l0-48 32 0 0-32-264 0 0 32z m166 48c0 5-2 8-5 11-3 3-7 5-12 5l-99 0c-5 0-10-2-13-5-3-3-4-8-4-11l0-48 131 0 0 48z m0 129c0 13-5 25-11 36-8 11-17 18-29 23-14 5-27 6-39 3-13-3-25-9-34-17-10-9-16-20-19-32-3-13-1-25 3-38 5-12 14-21 25-29 11-8 23-11 37-11 17 0 34 6 47 19 12 12 20 29 20 46z m-34 0c0-6-2-12-6-17-5-5-8-11-14-12-7-3-13-3-19-2-6 2-12 5-17 9-5 5-8 11-9 17-2 7 0 13 1 19 3 3 8 9 13 12 6 4 12 5 18 5 10 0 17-3 24-9 6-6 9-14 9-22z m12-245c-11 8-23 11-39 11-12 0-21-3-31-8-12-8-20-22-20-42l31 0c0 6 2 11 5 17 3 5 9 8 17 8 8 0 14-2 17-6 3-5 5-10 5-14 0-5-2-9-5-13-1-1-3-4-6-6 0 0-17-11-23-18-5-5-5-13-5-22 0 0 0-2 3-2l23 0c3 0 3 2 3 3 0 4 0 7 2 8 2 5 5 8 9 11l8 6c8 6 14 11 16 14 4 6 7 14 7 22 0 12-6 23-17 31z m-39-113c-10 0-18-6-20-17 0-11 8-19 19-19 11 0 19 6 20 17 0 11-8 19-19 19z"/>
<glyph glyph-name="calendar-2" unicode="&#68;" d="M334 0c-28 0-56 8-80 24-24 16-41 38-52 66-12 27-15 56-8 84 4 29 19 55 40 76 20 20 44 33 73 40 27 6 56 3 83-8 26-12 48-31 64-55 16-24 24-53 24-81 0-39-14-77-41-104-29-26-66-42-103-42z m0 256c-20 0-41-6-59-19-17-13-32-29-40-50-8-21-9-41-6-64 5-21 14-41 29-56 14-16 33-25 54-30 21-5 43-2 62 6 20 8 37 23 48 40 12 18 18 40 18 61 0 29-11 58-32 77-18 24-46 35-74 35z m0-256c-28 0-56 8-80 24-24 16-41 38-52 66-12 27-15 56-8 84 4 29 19 55 40 76 20 20 44 33 73 40 27 6 56 3 83-8 26-12 48-31 64-55 16-24 24-53 24-81 0-39-14-77-41-104-29-26-66-42-103-42z m0 256c-20 0-41-6-59-19-17-13-32-29-40-50-8-21-9-41-6-64 5-21 14-41 29-56 14-16 33-25 54-30 21-5 43-2 62 6 20 8 37 23 48 40 12 18 18 40 18 61 0 29-11 58-32 77-18 24-46 35-74 35z m0-256c-28 0-56 8-80 24-24 16-41 38-52 66-12 27-15 56-8 84 4 29 19 55 40 76 20 20 44 33 73 40 27 6 56 3 83-8 26-12 48-31 64-55 16-24 24-53 24-81 0-39-14-77-41-104-29-26-66-42-103-42z m0 256c-20 0-41-6-59-19-17-13-32-29-40-50-8-21-9-41-6-64 5-21 14-41 29-56 14-16 33-25 54-30 21-5 43-2 62 6 20 8 37 23 48 40 12 18 18 40 18 61 0 29-11 58-32 77-18 24-46 35-74 35z m28-165l-47 48 0 80 35 0 0-65 36-37z m0 0l-47 48 0 80 35 0 0-65 36-37z m0 0l-47 48 0 80 35 0 0-65 36-37z m97 347c0 10-3 20-11 26-6 6-16 11-26 11l-72 0 0 37-35 0 0-37-144 0 0 37-35 0 0-37-70 0c-10 0-20-3-26-11-6-6-11-16-11-26l0-366c0-8 5-18 11-24 6-6 16-11 26-11l70 0 0 37-70 0 0 364 70 0 0-36 35 0 0 36 144 0 0-36 35 0 0 36 74 0 0-110 35 0z m0 0c0 10-3 20-11 26-6 6-16 11-26 11l-72 0 0 37-35 0 0-37-144 0 0 37-35 0 0-37-70 0c-10 0-20-3-26-11-6-6-11-16-11-26l0-366c0-8 5-18 11-24 6-6 16-11 26-11l70 0 0 37-70 0 0 364 70 0 0-36 35 0 0 36 144 0 0-36 35 0 0 36 74 0 0-110 35 0z m0 0c0 10-3 20-11 26-6 6-16 11-26 11l-72 0 0 37-35 0 0-37-144 0 0 37-35 0 0-37-70 0c-10 0-20-3-26-11-6-6-11-16-11-26l0-366c0-8 5-18 11-24 6-6 16-11 26-11l70 0 0 37-70 0 0 364 70 0 0-36 35 0 0 36 144 0 0-36 35 0 0 36 74 0 0-110 35 0z"/>
<glyph glyph-name="cita" unicode="&#69;" d="M494 312l-182-3 72 75c-75 71-193 72-265-2-72-75-69-191 6-262 75-70 193-69 265 6 36 37 53 79 51 133l54 2c2-53-21-122-67-171-92-95-244-98-341-7-95 90-99 242-7 337 92 95 242 98 339 8l70 73z m-229 51l3-115 95-54-18-33-116 66-3 134z"/>
<glyph glyph-name="video" unicode="&#70;" d="M472 365l-438 0c-8 0-15-3-20-10-6-4-9-12-9-20l0-282c0-8 3-16 9-20 5-7 12-10 20-10l438 0c7 0 15 3 20 10 6 6 9 12 9 20l0 282c0 8-3 16-9 20-5 7-13 10-20 10z m-2-311l-434 0 0 280 434 0z m-28 419c0 5-1 8-4 11-4 3-8 5-11 5l-342 0c-4 0-9-2-11-5-3-3-4-6-4-11l0-15 372 0z m30-62c0 5-2 8-5 11-2 3-6 5-11 5l-403 0c-3 0-8-2-11-5-3-3-5-6-5-11l0-15 435 0z m-300-307c5-3 10-5 14-5 3 0 8 2 11 2l152 68c5 2 9 5 11 9 3 5 5 10 5 14 0 5-2 11-5 14-3 5-6 8-11 10l-152 68c-5 1-8 3-12 1-5 0-10-1-13-4-3-3-6-6-9-9-2-4-3-8-3-13l0-135c0-5 1-9 3-12 3-2 6-5 9-8z m11 158c0 2 0 2 0 2 0 0 2 1 2 1 1 0 1 0 3 0 0 0 1 0 1 0l152-68c2 0 2-2 2-2 0-1 0-1 0-3 0-1 0-1 0-3 0 0-2-1-2-1l-152-69c0 0-1 0-1 0 0 0-2 0-2 0 0 0-1 2-1 2 0 0 0 2 0 2l0 139z"/>
<glyph glyph-name="eyes" unicode="&#71;" d="M256 432c-117 0-216-74-256-176 40-102 139-176 256-176 117 0 216 74 256 176-40 102-139 176-256 176z m0-293c-64 0-117 53-117 117 0 64 53 117 117 117 64 0 117-53 117-117 0-64-53-117-117-117z m0 187c-38 0-70-32-70-70 0-38 30-70 70-70 40 0 70 32 70 70 0 38-32 70-70 70z"/>
<glyph glyph-name="user" unicode="&#72;" d="M384 390c0 68-57 122-128 122-71 0-128-54-128-122 0-67 57-121 128-121 71 0 128 54 128 121z m99-390l29 0 0 27c0 104-90 189-198 189l-114 0c-110 0-200-85-200-189l0-27z"/>
<glyph glyph-name="email-2" unicode="&#73;" d="M461 464l-410 0c-29 0-51-24-51-53l0-312c0-27 22-51 51-51l410 0c29 0 51 24 51 53l0 310c0 29-22 53-51 53z m0-104l-205-130-205 130 0 51 205-129 205 129z"/>
<glyph glyph-name="lock" unicode="&#74;" d="M397 341l-24 0 0 48c0 67-55 121-122 121-67 2-121-52-121-120l0-48-26 0c-27 0-48-22-48-48l0-246c0-27 22-48 48-48l293 0c27 0 48 22 48 48l0 245c1 27-21 48-48 48z m-146-219c-27 0-48 22-48 48 0 25 23 48 48 48 26 0 48-23 48-48 0-26-21-48-48-48z m75 219l-150 0 0 48c0 41 34 75 75 75 42 0 75-34 75-75z"/>
<glyph glyph-name="left" unicode="&#75;" d="M396 445l-174-187 171-191-55-58-222 249 227 246z"/>
<glyph glyph-name="graduate" unicode="&#76;" d="M256 221c-58 0-107-23-139-59l0-66 278 0 0 67c-32 35-80 58-139 58z m256 35l-256 160-256-160 43-27 0-42c-11-1-11-9-11-19 0-5 2-11 3-16l-14-43 53 0-15 43c2 5 5 11 5 16 0 10-10 18-10 21l0 33 53-32 0 2c32 38 88 62 151 62 60 0 118-24 150-62l0-3z"/>
<glyph glyph-name="academy" unicode="&#77;" d="M0 77l512 0 0-77-512 0z m256 435l-256-102 0-52 512 0 0 52z m128-205l77 0 0-179-77 0z m-166 0l76 0 0-179-76 0z m-167 0l77 0 0-179-77 0z"/>
<glyph glyph-name="family" unicode="&#78;" d="M450 455c0 27-22 49-50 49-27 0-49-22-49-49 0-28 22-50 49-50 28 0 50 22 50 50z m0-447l0 149 62 0-64 189c-3 9-9 19-18 25-8 6-19 9-28 9l-3 0c-11 0-20-3-30-9-7-6-15-14-18-25l-22-64c26-15 45-43 45-76l0-198z m-188 260c20 0 37 17 37 38 0 20-17 37-37 37-20 0-37-17-37-37 0-21 17-38 37-38z m-125 187c0 27-23 49-50 49-28 0-50-22-50-49 0-28 22-50 50-50 27 0 50 22 50 50z m1-447l0 174 37 0 0 148c0 28-23 50-51 50l-74 0c-28 0-50-22-50-50l0-148 37 0 0-174z m161 0l0 99 25 0 0 99c0 21-17 38-37 38l-50 0c-20 0-37-17-37-38l0-99 25 0 0-99z"/>
<glyph glyph-name="team" unicode="&#79;" d="M512 219c0-3-2-6-5-9-3-4-6-5-13-7-6-1-11-3-17-5-7-1-15-3-24-3-10-1-18-1-26-1-6 0-16 0-27-2-11 0-19 0-26 0l-86 0 0 64c0 16-3 29-10 40 10 2 18 5 26 5l0 16c-32 19-48 59-48 120 0 25 10 43 27 56 18 13 40 19 69 19 29 0 51-6 69-19 17-13 27-32 27-56 0-63-16-104-48-122l0-14c34-5 61-15 82-29 20-14 30-30 30-53z m-304-96l0-14c34-5 61-15 82-29 20-14 30-32 30-54 0-4-2-7-5-10-3-3-6-5-13-6-6-2-11-4-17-5-7-2-15-3-24-3-10-2-18-2-26-2-6 0-16-2-27-2-11 0-19 0-26 0l-73 0-27 2-26 2-24 3-18 5-12 6-2 11c0 21 11 40 30 53 21 14 48 24 82 29l0 16c-32 19-48 59-48 120 0 25 10 43 27 56 18 13 40 19 69 19 29 0 51-6 69-19 17-13 27-32 27-56 0-64-16-104-48-122z"/>
<glyph glyph-name="calendar-1" unicode="&#80;" d="M498 469l-87 0c-1 0-3 0-5-2-1-1-1-3-1-5 0-1 0-1 1-3l0-51c0-2 0-3-1-5 0-1-2-3-3-5-2-1-4-1-5-3-2 0-3-1-5-1l-27 0c-2 0-3 0-5 1-2 0-3 2-5 3-1 2-3 4-3 5 0 2-2 3-2 5l0 50c2 1 2 3 2 4 0 0 0 2 0 2 0 2-2 2-2 2 0 0-1 1-1 1 0 0-2 0-3 0l-176 0c-2 0-4 0-5-1-2-2-2-4-2-5 0-2 0-2 0-3l0-52c0-1 0-3-1-4 0-2-2-4-4-5 0 0-1 0-3-2-1 0-3-1-5-1l-24 0c-3 0-6 1-9 4-3 4-5 7-5 10l0 51c0 2 2 2 2 3 0 2 0 2 0 4-2 0-2 0-4 1 0 0-1 2-1 2 0 0-2 0-3 0l-92 0c-3 0-8-2-9-5-3-2-5-6-5-10l0-440c0-8 6-14 14-14l484 0c3 0 8 2 9 5 3 3 5 6 5 11l0 438c0 4-2 8-5 12-1 1-6 3-9 3z m0-456l-484 0 0 333 487 0-3-333c1 1 1 1 0 0 1 1 1 1 0 0z m-359 397c5 0 7 3 7 6l0 90c0 1 0 1 0 3 0 1-2 1-2 1 0 0-2 2-2 2 0 0-1 0-3 0-1 0-1 0-1 0 0 0-2-2-2-2 0 0-2-1-2-1 0-2 0-2 0-3l0-90c-1-3 2-6 5-6z m239 0c4 0 6 3 6 6l0 90c0 1 0 3-2 4-1 2-3 2-4 2-2 0-4 0-5-2-2-1-2-3-2-4l0-90c0-3 3-6 7-6z m-272-164c20 0 36 16 36 37 0 21-16 37-36 37-21 0-37-16-37-37 0-21 17-37 37-37z m104 0c20 0 36 16 36 37 0 21-16 37-36 37-21 0-37-16-37-37 1-21 17-37 37-37z m104 0c20 0 36 16 36 37 0 21-16 37-36 37-21 0-37-16-37-37 1-21 17-37 37-37z m-208-102c20 0 36 16 36 37 0 21-16 37-36 37-21 0-37-16-37-37 0-21 17-37 37-37z m104 0c20 0 36 16 36 37 0 21-16 37-36 37-21 0-37-16-37-37 0-21 17-37 37-37z m104 0c20 0 36 16 36 37 0 21-16 37-36 37-21 0-37-16-37-37 0-21 17-37 37-37z m-208-102c20 0 36 16 36 36 0 21-16 37-36 37-21 0-37-16-37-37 0-19 17-36 37-36z m104 0c20 0 36 16 36 36 0 21-16 37-36 37-21 0-37-16-37-37 1-19 17-36 37-36z m104 0c20 0 36 16 36 36 0 21-16 37-36 37-21 0-37-16-37-37 1-19 17-36 37-36z m102 204c21 0 37 16 37 37 0 21-16 37-37 37-21 0-37-16-37-37 0-21 16-37 37-37z m0-102c21 0 37 16 37 37 0 21-16 37-37 37-21 0-37-16-37-37 0-21 16-37 37-37z m0-102c21 0 37 16 37 36 0 21-16 37-37 37-21 0-37-16-37-37 0-19 16-36 37-36z"/>
<glyph glyph-name="profile" unicode="&#81;" d="M256 72c-64 0-120 32-154 82 0 51 103 80 154 80 51 0 154-29 154-80-18-26-40-47-68-61-25-15-56-21-86-21z m0 363c21 0 40-8 54-22 15-15 23-34 23-55 0-20-8-40-23-54-14-14-33-22-54-22-21 0-40 8-54 22-15 14-23 34-23 54 0 21 8 40 23 55 14 14 33 22 54 22z m0 77c-34 0-67-6-98-19-32-13-59-32-83-56-48-48-75-114-75-181 0-67 27-133 75-181 24-24 51-43 83-56 31-13 64-19 98-19 67 0 133 27 181 75 48 48 75 114 75 181 0 141-115 256-256 256z"/>
<glyph glyph-name="lock-2" unicode="&#82;" d="M417 342l54 0c8 0 14-3 20-8 4-4 7-10 7-16l0-292c0-6-3-12-7-17-5-4-12-7-20-7l-429 0c-7 0-13 3-19 7-6 5-8 9-8 15l0 292c0 6 3 12 8 17 4 4 12 7 19 7l54 0 0 26c0 39 17 75 47 104 30 27 71 42 113 42 42 0 83-15 113-42 30-27 47-65 47-104l0-24z m-54 0l0 24c0 26-11 51-32 69-19 18-46 29-75 29-29 0-56-11-75-29-21-18-32-43-32-69l0-24z m-134-146l0-48 54 0 0 48z m-107 0l0-48 54 0 0 48z m214 0l0-48 54 0 0 48z"/>
<glyph glyph-name="email" unicode="&#83;" d="M16 387l213-113c6-4 16-5 25-5 10 0 20 1 26 5l213 113c16 8 29 37 3 37l-482 0c-25 0-11-29 2-37z m485-61l-219-112c-10-4-16-4-26-4-10 0-16 0-26 4-9 5-203 104-219 112-11 7-11-1-11-6l0-205c0-11 16-27 29-27l454 0c13 0 29 16 29 29l0 203c0 5 0 13-11 6z"/>
<glyph glyph-name="phone" unicode="&#84;" d="M341 149l45 45c6 6 12 9 22 11 8 1 16 1 24-2l54-21c8-3 15-8 20-16 4-6 8-16 8-24l0-99c0-6-2-11-4-16-1-5-6-9-9-14-5-3-10-7-15-10-8-3-12-3-19-3-376 24-453 342-467 464 0 6 0 13 2 18 1 6 4 11 9 16 5 4 10 8 15 11 4 1 11 3 17 3l95 0c8 0 16-3 24-8 6-5 12-11 16-19l20-53c4-8 4-16 2-24-2-8-6-16-11-22l-45-45c2 0 27-171 197-192z"/>
<glyph glyph-name="alert" unicode="&#85;" d="M502 149l-179 302c-8 11-17 21-29 27-11 7-25 10-38 10-13 0-27-3-38-10-12-6-23-16-29-27l-179-302c-7-11-10-23-10-35 0-13 3-26 8-36 8-12 18-22 30-30 13-6 26-11 40-11l357 0c15 0 27 3 40 9 13 7 23 18 29 29 6 11 10 24 10 37-2 14-5 26-12 37z m-246-16c-5 0-10 1-13 3-3 3-6 6-8 11-1 5-1 10-1 15 1 4 3 9 6 12 3 4 8 5 11 7 3 1 10 0 13-2 5-1 8-5 11-8 3-3 3-8 3-13 0-6-3-12-6-16-5-8-10-9-16-9z m22 94c0-6-3-13-6-16-5-5-10-6-16-6-6 0-13 3-16 6-5 5-6 11-6 16l0 95c0 6 3 12 6 16 5 4 10 6 16 6 6 0 13-3 16-6 5-5 6-12 6-16z"/>
<glyph glyph-name="alert-2" unicode="&#86;" d="M307 461c0 13-5 27-14 37-10 9-24 14-37 14-13 0-27-5-37-14-9-10-14-24-14-37 0-13 5-27 14-37 10-10 23-14 37-14 14 0 27 4 37 14 9 10 14 24 14 37z m-51-461c13 0 27 5 37 14 9 10 14 23 14 37l0 205c0 13-5 27-14 37-10 9-23 14-37 14-14 0-27-5-37-14-9-10-14-23-14-37l0-205c0-13 5-27 14-37 10-9 24-14 37-14z"/>
<glyph glyph-name="phone-2" unicode="&#87;" d="M150 509c16 5 32 3 47-2 14-5 27-16 33-29l4-4 22-47c6-14 10-30 6-46-3-16-9-31-20-42l-5-3-37-32c-6-6-2-27 22-66 21-33 39-49 47-51l3 0 70 21c10 3 20 3 29 0 10-3 18-8 24-14l3-4 47-60c9-12 14-26 13-40 0-15-7-29-18-40l-5-5-19-16c-16-15-37-24-61-29-22-5-46-2-67 6-66 26-126 82-181 172-53 89-75 166-65 233 3 21 11 39 25 55 15 16 32 27 53 35l6 1z"/>
<glyph glyph-name="plus" unicode="&#88;" d="M483 285l-198 0 0 198c0 16-13 29-29 29-16 0-29-13-29-29l0-198-198 0c-16 0-29-13-29-29 0-16 13-29 29-29l198 0 0-198c0-16 13-29 29-29 16 0 29 13 29 29l0 198 198 0c16 0 29 13 29 29 0 16-13 29-29 29z"/>
<glyph glyph-name="close-1" unicode="&#89;" d="M142 235l205 0 0-184c0-5-1-11-6-14-3-3-10-7-15-7l-305 0c-5 0-11 2-15 7-4 5-6 9-6 16l0 406c0 5 2 11 6 15 4 4 8 6 15 6l307 0c5 0 11-2 14-6 4-4 7-10 7-15l0-184-207 0z m365 7l-104-117-25 29 73 81-102 0 0 40 102 0-73 82 25 29 104-117c3-3 5-10 5-15 0-3-2-9-5-12z"/>
<glyph glyph-name="birthday" unicode="&#90;" d="M256 373c13 0 26 4 37 13 10 9 14 21 14 32 0 9-3 16-7 24l-44 70-44-69c-4-7-7-16-7-23 0-12 6-25 14-32 11-11 24-15 37-15z m120-233l-28 25-28-25c-17-14-39-23-63-23-23 0-46 9-62 23l-28 25-28-25c-9-7-18-13-29-17-13-5-25-6-37-6-17 0-36 4-51 15l0-107c0-6 3-12 7-16 6-6 12-9 19-9l416 0c7 0 13 3 19 7 4 5 7 11 7 16l0 107c-15-9-32-14-51-14-12 0-24 1-34 5-11 5-22 12-29 19z m37 163l-131 0 0 47-52 0 0-47-131 0c-20 0-40-8-55-21-15-13-24-30-24-49l0-36c0-11 6-23 15-32 10-8 22-13 37-13 7 0 13 2 19 3 6 3 11 6 16 10l55 50 56-50c10-8 22-13 37-13 13 0 26 5 36 13l56 50 55-50c5-4 11-7 16-10 6-3 14-3 19-3 14 0 27 5 37 13 10 9 15 21 15 32l0 36c0 8-2 17-6 26-5 9-10 16-18 23-7 6-16 12-25 15-7 4-17 6-27 6z"/>
<glyph glyph-name="home" unicode="&#48;" d="M506 248l-231 256c-9 11-29 11-38 0l-231-256c-3-3-4-8-6-13 0-5 0-9 2-14 4-10 12-15 24-15l51 0 0-179c0-6 3-13 8-17 5-7 11-10 17-10l77 0c7 0 13 3 18 8 5 5 8 11 8 18l0 102 102 0 0-102c0-7 3-13 8-18 5-5 11-8 18-8l77 0c6 0 12 3 17 8 5 5 8 11 8 18l0 179 51 0c5 0 10 1 15 5 5 3 8 6 9 11 2 3 2 9 2 14-2 5-3 10-6 13z"/>
<glyph glyph-name="personal-card" unicode="&#49;" d="M461 472l-410 0c-28 0-51-25-51-54l0-324c0-29 23-54 51-54l410 0c28 0 51 25 51 54l0 324c0 29-23 54-51 54z m-289-108c30 0 52-23 52-54 0-31-22-54-52-54-29 0-51 23-51 54 0 31 22 54 51 54z m95-216l-190 0 0 12c0 37 43 76 95 76 53 0 96-38 96-76l0-12z m168 27l-102 0 0 54 102 0z m0 108l-128 0 0 54 128 0z"/>
<glyph glyph-name="edit" unicode="&#50;" d="M491 48l-470 0c-11 0-21-8-21-19l0-23c0-4 2-6 5-6l502 0c3 0 5 2 5 5l0 22c0 13-10 21-21 21z m-398 54c1 0 3 0 3 0l107 20c2 0 3 1 3 1l272 272c0 0 2 2 2 2 0 0 0 1 0 3 0 2 0 2 0 3 0 0 0 2-2 2l-105 107c-2 0-3 0-5 0-2 0-3 0-5-2l-272-272c-1-1-1-1-1-3l-18-107c0-3 0-6 0-10 2-3 3-6 5-8 5-6 11-8 16-8z"/>
<glyph glyph-name="female" unicode="&#51;" d="M296 0l0 78 120 0 0 79-120 0 0 45c35 9 64 27 86 56 23 28 34 60 34 97 0 43-16 80-46 112-32 29-69 45-114 45-45 0-82-16-114-46-30-31-46-68-46-111 0-37 11-69 34-97 22-29 51-47 86-56l0-45-120 0 0-79 120 0 0-78z m-40 434c22 0 42-8 56-23 16-16 24-33 24-56 0-22-8-40-24-56-16-16-35-22-56-22-22 0-42 8-56 22-16 16-24 34-24 56 0 23 8 40 24 56 14 15 34 23 56 23z"/>
<glyph glyph-name="mottivateca" unicode="&#52;" d="M189 509c3 1 5 2 8 3 3 1 5 1 8 0 3-1 5-2 7-4 4-4 6-9 6-15l0-30c1-5-1-10-4-14-3-4-7-7-12-7-4-1-9 0-13 3l-1 0c-4 3-6 6-7 11-4-3-74-48-83-54-8-5-12-14-12-23l0-1c0-4 1-9 4-13 5-8 28-4 53 12 8 5 28 17 49 32l14 10 25 17 18 12c20 14 35 25 36 25 5 4 13 4 19 0 5-3 8-9 9-15 0-1 0-2 0-2l0-2c-1-5-2-10-5-14-1-2-2-3-3-4l-91-64c-15-10-26-25-30-42-2-9-3-17-3-26 0-2 0-12 0-13l0-206c-1-9-6-16-13-20-12-4-25-6-38-6-40 0-82 18-82 55l0 258c0 2 0 5 0 8 0 1 0 1 0 1 0 22 11 43 30 55l1 0c6 5 110 73 110 73z m-109-175l0-220c0-4 2-9 10-14 12-6 26-9 39-9 7 0 13 1 19 2l0 199c0 19 2 38 8 56-13-7-26-13-41-16-8-1-15-2-23-1-4 1-8 2-12 3z m119-37l0-238c0-3 0-5 0-8 5-32 44-51 79-51 15-1 30 3 43 12 23 13 133 102 133 102 5 4 9 10 9 16l0 256c1 8-3 16-10 20-7 4-15 3-22-2-8-6-20-16-33-26l-5-4-10-8-25-20-4-3c-23-19-45-35-53-41-27-16-52-20-61-10-3 4-5 8-4 13l0 1c0 3 1 6 1 8 3 6 6 11 12 14 9 7 76 54 82 59 2-3 4-6 7-9l2-1c1-1 2-2 4-2 2-1 6-1 8 0 5 1 9 3 12 7 2 3 4 8 4 12l0 29c0 6-2 11-6 15-2 2-5 3-7 4-3 1-6 1-8 0-2 0-4-1-6-2-1 0-2-1-2-1l-114-80c-11-9-20-21-24-35-2-6-3-13-3-20l0-8z m32-37l0-201c1-7 5-14 11-17 11-7 24-10 36-10 9-1 18 2 26 6l2 1c9 6 40 30 71 54 15 12 29 24 40 32 5 4 10 8 13 11l2 1 0 86-80-65c-10-7-23-9-34-3-11 5-18 16-18 28l0 40c0 9 4 19 12 25l94 76c8 6 17 8 26 6l0 32-18-14-32-25c-26-21-52-42-64-48-14-9-31-16-48-19-13-3-26-1-39 4z m101-77l0 40 94 76 0-39z"/>
<glyph glyph-name="loading" unicode="&#97;" d="M437 437c-48 48-112 75-181 75-68 0-133-27-181-75-48-48-75-113-75-181 0-69 27-133 75-181 48-49 113-75 181-75 69 0 133 26 181 75 49 48 75 112 75 181 0 68-26 133-75 181z m-181-24c87 0 157-71 157-157 0-87-70-157-157-157-86 0-157 70-157 157 0 86 71 157 157 157z m165-322c-44-44-103-68-165-68-62 0-120 24-164 68-44 44-69 103-69 165l53 0c0-100 81-180 180-180 100 0 180 80 180 180 0 99-80 180-180 180-6 0-11 0-17-1l0 53c6 0 11 1 17 1 62 0 121-25 165-69 44-44 68-102 68-164 0-62-24-121-68-165z"/>
<glyph glyph-name="check-1" unicode="&#98;" d="M448 440c-17 13-41 9-54-9l-180-263-99 107c-15 17-39 17-55 2-15-16-16-42-1-58 0 0 120-134 137-147 18-14 42-10 54 9l207 302c12 18 8 44-9 57z"/>
<glyph glyph-name="cancel" unicode="&#99;" d="M350 204l-42-42c-2-2-4-3-6-3-3 0-5 1-7 3l-39 39-39-39c-2-2-4-3-7-3-2 0-4 1-6 3l-42 42c-2 2-3 4-3 6 0 3 1 5 3 7l39 39-39 39c-2 2-3 4-3 7 0 2 1 4 3 6l42 42c2 2 4 3 6 3 3 0 5-1 7-3l39-39 39 39c2 2 4 3 7 3 2 0 4-1 6-3l42-42c2-2 3-4 3-6 0-3-1-5-3-7l-39-39 39-39c2-2 3-4 3-7 0-2-1-4-3-6z m61 52c0 28-7 54-20 78-14 24-33 43-57 57-24 13-50 20-78 20-28 0-54-7-78-20-24-14-43-33-57-57-13-24-20-50-20-78 0-28 7-54 20-78 14-24 33-43 57-57 24-13 50-20 78-20 28 0 54 7 78 20 24 14 43 33 57 57 13 24 20 50 20 78z m64 0c0-40-9-77-29-110-20-34-46-60-80-80-33-20-70-29-110-29-40 0-77 9-110 29-34 20-60 46-80 80-20 33-29 70-29 110 0 40 9 77 29 110 20 34 46 60 80 80 33 20 70 29 110 29 40 0 77-9 110-29 34-20 60-46 80-80 20-33 29-70 29-110z"/>
<glyph glyph-name="calendar-check" unicode="&#100;" d="M372 237l-146-147c-2-1-4-2-7-2-2 0-4 1-6 2l-82 83c-2 1-3 4-3 6 0 3 1 5 3 6l13 14c1 1 4 2 6 2 2 0 5-1 7-2l62-63 127 127c2 1 4 2 7 2 2 0 4-1 6-2l13-14c2-1 3-3 3-6 0-2-1-5-3-6z m-335-200l402 0 0 292-402 0z m109 347l0 82c0 3-1 5-2 7-2 2-4 2-7 2l-18 0c-3 0-5 0-7-2-1-2-2-4-2-7l0-82c0-3 1-5 2-7 2-1 4-2 7-2l18 0c3 0 5 1 7 2 1 2 2 4 2 7z m220 0l0 82c0 3-1 5-3 7-2 2-4 2-6 2l-19 0c-2 0-5 0-6-2-2-2-3-4-3-7l0-82c0-3 1-5 3-7 1-1 4-2 6-2l19 0c2 0 4 1 6 2 2 2 3 4 3 7z m109 18l0-365c0-10-3-19-10-26-8-7-16-11-26-11l-402 0c-10 0-19 4-26 11-7 7-11 16-11 26l0 365c0 10 4 19 11 26 7 7 16 11 26 11l36 0 0 27c0 13 5 24 14 33 9 9 19 13 32 13l18 0c13 0 23-4 32-13 9-9 14-20 14-33l0-27 110 0 0 27c0 13 4 24 13 33 9 9 20 13 32 13l19 0c12 0 23-4 32-13 9-9 13-20 13-33l0-27 37 0c10 0 18-4 26-11 7-7 10-16 10-26z"/>
<glyph glyph-name="save-inactive" unicode="&#101;" d="M402 439l-292 0 0-355 121 116 25 24 25-24 121-116z m4 36c4 0 8 0 12-2 7-3 12-7 15-12 4-5 6-11 6-18l0-368c0-6-2-12-6-18-3-5-8-9-15-11-3-2-8-3-12-3-9 0-17 3-24 10l-126 121-126-121c-7-7-15-10-24-10-4 0-8 1-12 3-7 2-12 6-15 11-4 6-6 12-6 18l0 368c0 7 2 13 6 18 3 5 8 9 15 12 4 2 8 2 12 2z"/>
<glyph glyph-name="save" unicode="&#102;" d="M406 475c4 0 8 0 12-2 7-3 12-7 15-12 4-5 6-11 6-18l0-368c0-6-2-12-6-18-3-5-8-9-15-11-3-2-8-3-12-3-9 0-17 3-24 10l-126 121-126-121c-7-7-15-10-24-10-4 0-8 1-12 3-7 2-12 6-15 11-4 6-6 12-6 18l0 368c0 7 2 13 6 18 3 5 8 9 15 12 4 2 8 2 12 2z"/>
<glyph glyph-name="trash" unicode="&#107;" d="M201 302l0-165c0-3-1-5-2-6-2-2-4-3-7-3l-18 0c-3 0-5 1-7 3-2 1-2 3-2 6l0 165c0 2 0 5 2 6 2 2 4 3 7 3l18 0c3 0 5-1 7-3 1-1 2-4 2-6z m73 0l0-165c0-3-1-5-2-6-2-2-4-3-7-3l-18 0c-3 0-5 1-7 3-1 1-2 3-2 6l0 165c0 2 1 5 2 6 2 2 4 3 7 3l18 0c3 0 5-1 7-3 1-1 2-4 2-6z m73 0l0-165c0-3 0-5-2-6-2-2-4-3-7-3l-18 0c-3 0-5 1-7 3-1 1-2 3-2 6l0 165c0 2 1 5 2 6 2 2 4 3 7 3l18 0c3 0 5-1 7-3 2-1 2-4 2-6z m37-207l0 271-256 0 0-271c0-4 1-8 2-12 1-3 3-6 4-7 2-2 3-3 3-3l238 0c0 0 1 1 3 3 1 1 3 4 4 7 1 4 2 8 2 12z m-192 307l128 0-14 34c-1 1-3 2-5 3l-90 0c-2-1-4-2-5-3z m265-9l0-18c0-3-1-5-2-7-2-1-4-2-7-2l-27 0 0-271c0-16-5-30-14-41-9-12-20-17-32-17l-238 0c-12 0-23 5-32 16-9 11-14 25-14 41l0 272-27 0c-3 0-5 1-7 2-1 2-2 4-2 7l0 18c0 3 1 5 2 7 2 1 4 2 7 2l88 0 20 48c3 7 8 13 16 18 7 5 15 7 22 7l92 0c7 0 15-2 22-7 8-5 13-11 16-18l20-48 88 0c3 0 5-1 7-2 1-2 2-4 2-7z"/>
<glyph glyph-name="camera" unicode="&#104;" d="M430 365l-67 0-40 41c0 0-1 0-1 0l0 0c-6 6-14 10-23 10l-84 0c-10 0-19-4-25-11l0 0-39-40-69 0c-19 0-34-15-34-33l0-202c0-19 15-34 34-34l348 0c19 0 34 15 34 34l0 202c0 18-15 33-34 33z m-174-219c-51 0-92 42-92 93 0 51 41 93 92 93 51 0 92-42 92-93 0-51-41-93-92-93z m168 165c-8 0-14 7-14 15 0 7 6 14 14 14 8 0 14-7 14-14 0-8-6-15-14-15z m-168-2c-39 0-70-31-70-70 0-39 31-70 70-70 39 0 70 31 70 70 0 39-31 70-70 70z"/>
<glyph glyph-name="download" unicode="&#111;" d="M384 128c0 5-2 9-5 13-4 3-8 5-13 5-5 0-10-2-13-5-4-4-6-8-6-13 0-5 2-9 6-13 3-3 8-5 13-5 5 0 9 2 13 5 3 4 5 8 5 13z m73 0c0 5-2 9-5 13-4 3-8 5-13 5-5 0-9-2-13-5-4-4-5-8-5-13 0-5 1-9 5-13 4-3 8-5 13-5 5 0 9 2 13 5 3 4 5 8 5 13z m37 64l0-91c0-8-3-15-8-20-6-5-12-8-20-8l-420 0c-8 0-14 3-20 8-5 5-8 12-8 20l0 91c0 8 3 14 8 19 6 6 12 8 20 8l133 0 38-38c11-11 24-16 39-16 15 0 28 5 39 16l39 38 132 0c8 0 14-2 20-8 5-5 8-11 8-19z m-93 163c3-8 2-15-4-20l-128-128c-4-4-8-6-13-6-5 0-9 2-13 6l-128 128c-6 5-7 12-4 20 3 7 9 11 17 11l73 0 0 128c0 5 2 9 6 13 3 3 7 5 12 5l74 0c5 0 9-2 12-5 4-4 6-8 6-13l0-128 73 0c8 0 14-4 17-11z"/>
<glyph glyph-name="user-not" unicode="&#113;" d="M242 504c-29 0-56-11-77-31-20-19-31-46-31-74 0-52 38-95 88-104l127 123c-5 25-18 46-38 62-19 16-44 24-69 24z m-7-264l-163-159-47-45 34-34 82 79 318 0 0 53c0 49-68 90-159 102l192 188-34 33z m-210-106l0-31 132 129c-78-17-132-54-132-98z"/>
<glyph glyph-name="microfone" unicode="&#53;" d="M373 281l0-53c0-32-13-64-36-87-23-23-54-36-87-36-32 0-64 13-87 36-23 23-36 55-36 87l0 53-35 0 0-53c0-39 15-76 40-105 26-29 62-47 101-52l0-36-71 0 0-35 176 0 0 35-70 0 0 36c38 5 74 23 100 52 26 29 40 66 40 105l0 53z m-123-140c23 0 46 9 62 25 17 17 26 39 26 62l0 176c0 23-9 46-26 62-16 16-39 26-62 26-23 0-45-10-62-26-16-16-26-39-26-62l0-176c0-23 10-45 26-62 17-16 39-25 62-25z"/>
<glyph glyph-name="camera-1" unicode="&#54;" d="M467 380l-97-52 0 72c0 8-3 15-9 21-6 5-14 8-22 8l-277 0c-17 0-32-6-44-17-11-11-18-26-18-42l0-235c0-16 7-31 18-42 12-11 27-17 44-17l277 0c8 0 16 3 22 9 6 5 9 13 9 21l0 72 97-52c3-2 6-3 9-3 3 0 6 1 8 2 3 1 5 3 7 5 1 3 2 6 2 8l0 229c0 3-1 6-2 8-2 3-4 5-7 6-2 1-5 2-8 2-3-1-6-1-9-3z"/>
<glyph glyph-name="send" unicode="&#55;" d="M504 509c6-5 9-11 8-18l-73-439c-1-6-4-10-10-13-2-2-5-2-8-2-3 0-5 0-7 1l-130 53-69-84c-3-5-8-7-14-7-2 0-4 0-6 1-4 1-7 4-9 7-2 3-3 6-3 10l0 100 247 303-306-265-113 47c-7 2-10 7-11 15 0 8 3 14 9 17l476 274c2 2 5 3 9 3 4 0 7-1 10-3z"/>
<glyph glyph-name="microfone-not" unicode="&#56;" d="M387 232c0-24-7-48-20-68-14-20-33-36-55-46-22-10-47-13-70-9-24 4-47 15-64 31l25 26c13-12 29-19 46-22 17-2 34 0 50 7 15 7 29 18 38 33 9 14 14 31 14 48l0 82 161 161-25 25-475-475 25-25 115 115c25-24 58-39 92-43l0-36-71 0 0-36 178 0 0 36-71 0 0 36c39 5 75 24 102 53 26 29 41 68 41 107l0 54-36 0z m-250-6l0 60-36 0 0-54c0-13 2-25 5-37z m210 210c-6 20-20 37-38 48-18 12-39 16-60 13-21-3-40-13-54-29-14-16-22-36-22-57l0-149z"/>
<glyph glyph-name="camera-1-not" unicode="&#57;" d="M331 434l-287 0c-9 0-18-4-25-10-6-7-10-16-10-25l0-282c0-1 0-3 0-5z m161-37c-3 1-6 2-9 2-3-1-6-2-8-3l-96-68 0 28 123 123-26 25-467-467 25-25 71 70 238 0c10 0 19 4 25 11 7 6 11 15 11 24l0 72 95-68c2-2 6-3 9-3 3-1 6 0 9 2 3 1 5 3 7 6 2 3 3 6 3 9l0 246c0 4-1 7-3 9-2 3-4 6-7 7z"/>
<glyph glyph-name="ring" unicode="&#33;" d="M285 368l60 83-36 44-126 0-36-44 60-83c-83-18-146-92-146-180 0-102 83-184 185-184 102 0 184 82 184 184 0 88-62 162-145 180z m-39-303c-68 0-124 55-124 123 0 68 56 124 124 124 68 0 124-56 124-124 0-68-56-123-124-123z"/>
<glyph glyph-name="folder" unicode="&#34;" d="M461 391l-103 0 0 51c0 29-22 52-51 52l-102 0c-29 0-51-23-51-52l0-51-103 0c-28 0-51-23-51-51l0-282c0-28 23-51 51-51l410 0c28 0 51 23 51 51l0 282c0 28-23 51-51 51z m-154 0l-102 0 0 51 102 0z"/>
<glyph glyph-name="sons" unicode="&#35;" d="M256 256c10 0 20-4 27-11 7-7 11-17 11-27 0-11-4-20-11-28-7-7-17-11-27-11-10 0-20 4-27 11-7 8-11 17-11 28 0 10 4 20 11 27 7 7 17 11 27 11z m0 256c34 0 67-7 98-19 31-13 59-32 83-56 24-24 43-52 56-83 12-31 19-64 19-98 0-68-27-133-75-181-48-48-113-75-181-75-34 0-67 7-98 19-31 13-59 32-83 56-48 48-75 113-75 181 0 68 27 133 75 181 48 48 113 75 181 75z m0-358c18 0 36-4 52-13 17-8 25-18 25-30l0-45c34 16 51 34 51 57l0 113c0 20-13 37-40 51-27 14-56 20-88 20-32 0-61-6-88-20-27-14-40-31-40-51l0-113c0-21 14-38 42-52 28-13 56-20 86-20l26 2 0 52-26-3c-26 0-51 6-76 16 4 10 13 18 28 25 15 7 31 11 48 11z m0 307c-17 0-33-7-45-19-12-12-19-28-19-45 0-17 7-33 19-45 12-12 28-19 45-19 17 0 33 7 45 19 12 12 19 28 19 45 0 17-7 33-19 45-12 12-28 19-45 19z"/>
<glyph glyph-name="excel" unicode="&#36;" d="M451 239l-81 0 0 40 81 0z m0-23l-81 0 0-41 81 0z m0 190l-81 0 0-40 81 0z m0-63l-81 0 0-41 81 0z m0-191l-81 0 0-40 81 0z m56-80c-2-12-17-12-26-12l-180 0 0-52-36 0-265 46 0 404 266 46 35 0 0-46 173 0c10 0 21 1 29-5 6-9 6-20 6-30l0-300c0-17 2-34-2-51z m-295 91c-16 32-32 64-48 97 16 31 31 63 47 94-13 0-27-1-40-2-9-24-21-47-28-71-8 23-17 45-26 68-12-1-25-2-38-3 14-29 28-58 41-88-15-29-30-58-45-87 13-1 26-1 38-1 9 23 21 45 28 68 8-25 20-48 29-72 14-1 28-2 42-3z m270 268l-181 0 0-25 46 0 0-40-46 0 0-23 46 0 0-41-46 0 0-23 46 0 0-40-46 0 0-23 46 0 0-41-46 0 0-23 46 0 0-40-46 0 0-27 181 0z"/>
<glyph glyph-name="computer" unicode="&#37;" d="M51 166l410 0 0 282-410 0z m231-51l0-51 102 0 0-51-256 0 0 51 102 0 0 51-205 0c-3 0-6 1-9 2-3 2-6 3-9 6-2 2-4 5-5 8-1 3-2 7-2 10l0 332c0 15 12 26 25 26l462 0c14 0 25-11 25-26l0-332c0-14-12-26-25-26z"/>
<glyph glyph-name="save-1" unicode="&#38;" d="M473 334c-1 3-1 5-2 7l0 3c-1 2-3 5-5 7l-163 153c-2 2-4 4-7 5l-3 0c-3 2-5 2-8 3l-164 0c-22 0-43-8-58-22-15-15-24-34-24-55l0-358c0-21 9-40 24-55 15-14 36-22 58-22l270 0c22 0 43 8 58 22 15 15 24 34 24 55z m-163 91l70-67-43 0c-7 0-14 3-19 8-5 5-8 11-8 18z m108-348c0-7-2-14-7-18-6-5-12-8-20-8l-270 0c-8 0-14 3-20 8-5 4-7 11-7 18l0 358c0 7 2 13 7 18 6 5 12 8 20 8l135 0 0-77c0-20 9-40 24-54 15-15 36-23 57-23l81 0z m-127 120l-8-7 0 66c0 7-3 13-8 18-5 5-12 8-19 8-7 0-14-3-19-8-5-5-8-11-8-18l0-66-8 7c-5 5-12 8-19 8-7 0-14-3-19-8-5-4-8-11-8-18 0-7 3-13 8-18l54-51c2-3 5-4 9-6 3-1 6-2 10-2 4 0 7 1 10 2 4 2 7 3 9 6l54 51c5 5 8 11 8 18 0 7-3 14-8 18-5 5-12 8-19 8-7 0-14-3-19-8z"/>
</font>
</defs>
</svg>
